<svg xmlns="http://www.w3.org/2000/svg" viewBox="0 0 47.576 51.103" fill="#e8594a"><path d="M4.802 38.001H3.634q-.755 0-1.51-.137-.754-.206-1.44-1.166-.685-.96-.685-2.126 0-.686.411-1.51.48-.822.892-1.508L17.971 3.087Q19.755 0 23.253 0q2.744 0 4.39 1.852 1.715 1.784 1.715 4.802l.137 24.694h2.058q1.44 0 2.47.96 1.028.96 1.028 2.4 0 1.373-1.029 2.333-1.029.96-2.675.96h-1.99l.07 9.055q0 1.509-1.03 2.606-1.028 1.098-2.538 1.098-1.577 0-2.675-1.029-1.097-1.029-1.097-2.675v-9.055zm3.909-6.653h13.444V7.203zm34.543 11.249q1.784 0 3.019 1.304 1.303 1.234 1.303 3.086 0 1.647-1.235 2.881-1.235 1.235-3.018 1.235-1.715 0-3.018-1.235-1.303-1.234-1.303-3.018 0-1.783 1.234-3.018 1.235-1.235 3.018-1.235z"/></svg>