<svg xmlns="http://www.w3.org/2000/svg" viewBox="0 0 41.814 50.417" fill="#e8594a"><path d="M3.43 6.654q-1.441 0-2.47-.892Q0 4.802 0 3.43q0-1.372 1.028-2.4Q2.058 0 3.498 0h9.466q1.509 0 2.47 1.098 1.028 1.029 1.028 2.606v42.597q0 1.647-1.029 2.744-1.029 1.098-2.675 1.098-1.51 0-2.607-1.098-1.097-1.097-1.097-2.675V6.654zm34.062 35.257q1.784 0 3.019 1.304 1.303 1.234 1.303 3.086 0 1.647-1.235 2.881-1.235 1.235-3.018 1.235-1.715 0-3.018-1.235-1.303-1.234-1.303-3.018 0-1.783 1.234-3.018 1.235-1.235 3.018-1.235z"/></svg>