<svg xmlns="http://www.w3.org/2000/svg" viewBox="0 0 148.45 51.72" fill="#009ad6"><path d="M-.004 31.695q0-1.44.823-2.332t2.127-.892h14.61q1.303 0 2.195.96.891.892.891 2.264 0 1.304-.891 2.264t-2.195.96H3.014q-1.234 0-2.126-.96t-.892-2.264zm33.949-23.94q-1.44 0-2.468-.891-.96-.96-.96-2.333t1.028-2.4 2.47-1.03h9.465q1.51 0 2.47 1.098 1.028 1.029 1.028 2.607v42.598q0 1.646-1.029 2.744-1.028 1.097-2.675 1.097-1.509 0-2.606-1.097t-1.098-2.676V7.755zm47.92 10.633q6.035 0 9.876 4.321 3.91 4.253 3.91 10.838 0 7.752-4.595 12.76t-11.798 5.007q-5.83 0-10.29-2.881t-4.458-5.42q0-1.44.96-2.469t2.47-1.029q1.029 0 3.087 1.51 2.126 1.509 4.047 2.4 1.92.823 3.84.823 3.91 0 6.38-2.95 2.538-3.017 2.538-7.613 0-4.048-2.264-6.517t-5.899-2.47q-1.372 0-2.126.138-.686.137-2.058.754l-1.44.618q-1.235.617-2.127.617-.823 0-1.92-.754-1.098-.824-1.098-1.921l.206-1.852 2.47-17.56q.342-2.127 1.165-2.882.892-.754 3.087-.754h15.64q1.508 0 2.537.96t1.029 2.4-1.029 2.402-2.538.96H78.229l-1.784 11.593q1.647-.618 2.813-.823t2.606-.206zM113.382.073q4.733 0 7.683 3.292t2.949 8.506q0 4.939-3.155 8.3-3.087 3.293-7.683 3.293-4.527 0-7.613-3.361t-3.087-8.3q0-5.077 3.087-8.37 3.155-3.36 7.82-3.36zm1.235 51.584q-.96 0-1.646-.96-.686-.892-.686-2.196l.206-1.029 20.577-45.89q.823-1.578 3.018-1.578 1.098 0 1.784.892t.686 2.332l-.138.96-20.783 45.754q-.686 1.715-3.018 1.715zm23.115-23.117q4.802 0 7.751 3.224t2.95 8.506q0 4.87-3.087 8.163t-7.75 3.292q-4.734 0-7.82-3.224-3.018-3.292-3.018-8.3 0-5.007 3.086-8.3 3.156-3.361 7.888-3.361zm-29.769-16.806q0 2.95 1.44 4.939 1.51 1.92 3.773 1.92t3.773-1.92 1.509-4.802q0-3.224-1.372-5.076t-3.772-1.852q-2.47 0-3.91 1.852t-1.44 4.939zm24.282 28.399q0 3.087 1.44 4.939t3.91 1.852 3.91-1.715 1.44-4.665q0-7.202-5.35-7.202-2.47 0-3.91 1.783-1.44 1.784-1.44 5.008z"/></svg>