<svg xmlns="http://www.w3.org/2000/svg" viewBox="0 0 110.13 51.72" fill="#e8594a"><path d="M-.004 31.695q0-1.44.823-2.332t2.127-.892h14.61q1.303 0 2.195.96.891.892.891 2.264 0 1.304-.891 2.264t-2.195.96H3.014q-1.234 0-2.126-.96t-.892-2.264zm43.553-13.307q6.036 0 9.877 4.321 3.91 4.253 3.91 10.838 0 7.752-4.596 12.76t-11.798 5.007q-5.83 0-10.289-2.881t-4.458-5.42q0-1.44.96-2.469t2.47-1.029q1.028 0 3.086 1.51 2.127 1.509 4.047 2.4 1.92.823 3.841.823 3.91 0 6.38-2.95 2.537-3.017 2.537-7.613 0-4.048-2.263-6.517-2.264-2.47-5.9-2.47-1.371 0-2.126.138-.685.137-2.057.754l-1.44.618q-1.235.617-2.127.617-.823 0-1.92-.754-1.098-.824-1.098-1.921l.206-1.852 2.469-17.56q.343-2.127 1.166-2.882.892-.754 3.087-.754h15.639q1.509 0 2.538.96t1.028 2.4-1.028 2.402-2.538.96H39.913L38.13 19.417q1.646-.618 2.812-.823t2.607-.206zM75.074.073q4.732 0 7.682 3.292t2.95 8.506q0 4.939-3.156 8.3-3.087 3.293-7.682 3.293-4.527 0-7.614-3.361t-3.087-8.3q0-5.077 3.087-8.37 3.155-3.36 7.82-3.36zm1.234 51.584q-.96 0-1.646-.96-.686-.892-.686-2.196l.206-1.029L94.76 1.582Q95.583.004 97.778.004q1.097 0 1.783.892t.686 2.332l-.137.96-20.785 45.754q-.686 1.715-3.018 1.715zM99.425 28.54q4.801 0 7.75 3.224t2.95 8.506q0 4.87-3.087 8.163t-7.75 3.292q-4.733 0-7.82-3.224-3.018-3.292-3.018-8.3 0-5.007 3.087-8.3 3.155-3.361 7.888-3.361zM69.654 11.734q0 2.95 1.441 4.939 1.51 1.92 3.773 1.92t3.772-1.92 1.51-4.802q0-3.224-1.372-5.076t-3.773-1.852q-2.47 0-3.91 1.852t-1.44 4.939zm24.282 28.399q0 3.087 1.44 4.939t3.91 1.852 3.91-1.715 1.44-4.665q0-7.202-5.35-7.202-2.469 0-3.91 1.783-1.44 1.784-1.44 5.008z"/></svg>