<svg xmlns="http://www.w3.org/2000/svg" viewBox="0 0 148.45 51.72" fill="#fdb62f"><path d="M-.004 31.695q0-1.44.823-2.332t2.127-.892h14.61q1.303 0 2.195.96.891.892.891 2.264 0 1.304-.891 2.264t-2.195.96H3.014q-1.234 0-2.126-.96t-.892-2.264zm33.949-23.94q-1.44 0-2.468-.891-.96-.96-.96-2.333t1.028-2.4 2.47-1.03h9.465q1.51 0 2.47 1.098 1.028 1.029 1.028 2.607v42.598q0 1.646-1.029 2.744-1.028 1.097-2.675 1.097-1.509 0-2.606-1.097t-1.098-2.676V7.755zm34.544-.548Q73.153.416 80.699.416q7.476 0 12.14 6.79 4.733 6.723 4.733 18.659 0 6.173-1.098 10.564-1.097 4.321-3.43 7.82-2.331 3.43-5.555 5.213-3.155 1.783-6.79 1.783-7.409 0-11.044-5.144t-4.802-9.604q-1.097-4.527-1.097-10.632 0-11.867 4.733-18.658zm3.018 18.726q0 8.712 2.4 13.72 2.401 5.007 6.654 5.007 4.39 0 6.86-4.939 2.468-4.939 2.468-13.788 0-8.917-2.469-13.925-2.4-5.007-6.653-5.007-4.322 0-6.79 5.076-2.47 5.007-2.47 13.856zM113.382.073q4.733 0 7.683 3.292t2.949 8.506q0 4.939-3.155 8.3-3.087 3.293-7.683 3.293-4.527 0-7.613-3.361t-3.087-8.3q0-5.077 3.087-8.37 3.155-3.36 7.82-3.36zm1.235 51.584q-.96 0-1.646-.96-.686-.892-.686-2.196l.206-1.029 20.577-45.89q.823-1.578 3.018-1.578 1.098 0 1.784.892t.686 2.332l-.138.96-20.783 45.754q-.686 1.715-3.018 1.715zm23.115-23.117q4.802 0 7.751 3.224t2.95 8.506q0 4.87-3.087 8.163t-7.75 3.292q-4.734 0-7.82-3.224-3.018-3.292-3.018-8.3 0-5.007 3.086-8.3 3.156-3.361 7.888-3.361zm-29.769-16.806q0 2.95 1.44 4.939 1.51 1.92 3.773 1.92t3.773-1.92 1.509-4.802q0-3.224-1.372-5.076t-3.772-1.852q-2.47 0-3.91 1.852t-1.44 4.939zm24.282 28.399q0 3.087 1.44 4.939t3.91 1.852 3.91-1.715 1.44-4.665q0-7.202-5.35-7.202-2.47 0-3.91 1.783-1.44 1.784-1.44 5.008z"/></svg>