<svg xmlns="http://www.w3.org/2000/svg" width="500" height="500" viewBox="0 0 132.292 132.292"><g opacity=".15"><path d="M113.892 17.966l-.665-1.15 1.152-.665a.266.266 0 1 0-.266-.46l-1.151.664-.665-1.151a.266.266 0 1 0-.46.265l.664 1.152-1.151.664a.266.266 0 1 0 .266.46l1.151-.664.665 1.151a.266.266 0 1 0 .46-.266zm3.722 6.447l-1.595-2.763a.266.266 0 1 0-.46.266l1.594 2.762a.266.266 0 1 0 .46-.265z"/><path d="M118.311 18.177l-.265-.46-3.722-6.446-6.446 3.721-.46.266-6.447 3.722 3.722 6.446.265.46 3.722 6.447 6.446-3.722.46-.266 6.447-3.721zm-4.182-6.18l3.456 5.986-5.986 3.456-3.456-5.986zm-12.432 7.178l5.986-3.456 3.456 5.986-5.986 3.455zm7.178 12.432l-3.456-5.986 5.986-3.456 3.456 5.986zm2.99-9.708l5.986-3.456 3.456 5.986-5.986 3.456z"/><path d="M108.421 26.036l1.595 2.763a.266.266 0 1 0 .46-.266l-1.594-2.763a.266.266 0 1 0-.46.266zm1.382-.797L111.398 28a.266.266 0 1 0 .46-.265l-1.595-2.763a.266.266 0 1 0-.46.266zm-1.313-4.244a.266.266 0 0 0-.187-.326l-1.56-.417.418-1.56a.266.266 0 1 0-.513-.137l-.418 1.56-1.559-.419a.266.266 0 1 0-.137.514l1.559.418-.418 1.559a.265.265 0 0 0 .188.325.266.266 0 0 0 .325-.188l.418-1.559 1.559.418a.266.266 0 0 0 .325-.188zM98.78 93.47l-1.151-.665.664-1.151a.266.266 0 1 0-.46-.266l-.665 1.151-1.15-.664a.266.266 0 1 0-.267.46l1.152.665-.665 1.15a.266.266 0 1 0 .46.267l.665-1.152 1.151.665a.266.266 0 1 0 .266-.46zm6.446 3.721l-2.763-1.595a.266.266 0 1 0-.265.46l2.762 1.596a.266.266 0 1 0 .266-.46z"/><path d="M102.713 91.443l-.46-.266-6.447-3.722-3.722 6.446-.265.46-3.722 6.447 6.446 3.722.46.266 6.447 3.721 3.721-6.446.266-.46 3.722-6.446zM96 88.18l5.986 3.456-3.456 5.986-5.986-3.456zm-7.178 12.433l3.456-5.986 5.986 3.456-3.456 5.985zm12.432 7.177l-5.986-3.456 3.456-5.986 5.986 3.456zm-2.264-9.902l3.456-5.986 5.986 3.456-3.456 5.986z"/><path d="M98.077 103.194l2.763 1.595a.266.266 0 1 0 .266-.46l-2.763-1.596a.266.266 0 1 0-.266.46zm.798-1.382l2.762 1.595a.266.266 0 1 0 .266-.46l-2.762-1.595a.266.266 0 1 0-.266.46zm-3.259-3.019a.266.266 0 0 0-.325-.188l-1.56.418-.417-1.559a.266.266 0 1 0-.513.138l.417 1.559-1.559.417a.266.266 0 1 0 .138.514l1.559-.418.418 1.56a.265.265 0 0 0 .325.187.266.266 0 0 0 .188-.326l-.418-1.558 1.56-.418a.266.266 0 0 0 .187-.326zM19.812 22.136l-1.284.344-.344-1.284a.266.266 0 1 0-.514.137l.344 1.284-1.284.344a.266.266 0 1 0 .138.514l1.284-.344.344 1.284a.266.266 0 1 0 .513-.138l-.344-1.284 1.284-.344a.266.266 0 1 0-.137-.513zm7.189-1.926l-3.081.825a.266.266 0 1 0 .138.513l3.081-.825a.266.266 0 1 0-.138-.514z"/><path d="M21.16 17.921l-.514.138-7.19 1.927 1.926 7.19.138.513 1.927 7.19 7.19-1.927.513-.137 7.19-1.927-1.927-7.19-.137-.513-1.927-7.19zm-7.053 2.44l6.676-1.788 1.79 6.676-6.677 1.789zm3.715 13.867l-1.788-6.677 6.676-1.788 1.789 6.676zm13.867-3.716l-6.677 1.79-1.789-6.677 6.677-1.789zm-8.603-5.4l-1.79-6.677 6.677-1.789 1.79 6.676z"/><path d="M26.19 29.509l3.082-.826a.266.266 0 1 0-.138-.514l-3.081.826a.266.266 0 1 0 .138.514zm-.412-1.541l3.081-.826a.266.266 0 1 0-.138-.513l-3.08.825a.266.266 0 1 0 .137.514zm-4.439.169a.266.266 0 0 0-.363.097l-.807 1.398-1.398-.807a.266.266 0 1 0-.266.46l1.398.807-.807 1.398a.266.266 0 1 0 .46.266l.807-1.398 1.398.807a.265.265 0 0 0 .363-.097.266.266 0 0 0-.097-.363l-1.398-.807.807-1.398a.266.266 0 0 0-.097-.363zm16.326 87.894l-1.479-.396.606-2.261.137.037a.972.972 0 0 0 .502-1.876l-.137-.037.677-2.526.137.037a.972.972 0 0 0 .503-1.876l-.137-.036.209-.78a.278.278 0 1 0-.538-.144l-2.496 9.318-1.333-.357.678-2.53.358-1.337v-.002l1.18-4.4v-.001l1.382-5.158a.024.024 0 0 1 .03-.017l1.286.345c.012.003.02.016.017.029l-.838 3.125a.278.278 0 1 0 .538.144l.204-.761.137.036a.972.972 0 0 0 .502-1.875l-.137-.037.131-.488a.581.581 0 0 0-.41-.71l-1.286-.345a.581.581 0 0 0-.711.41l-.13.488-3.41-.913a1.263 1.263 0 1 0-2.005-1.17 1.263 1.263 0 0 0-2.32.01l-1.496-.4.131-.488a.581.581 0 0 0-.41-.71l-1.286-.345a.581.581 0 0 0-.711.41l-.13.488-.138-.037a.972.972 0 0 0-.502 1.876l.137.036-.677 2.527-.137-.037a.972.972 0 0 0-.503 1.875l.137.037-.677 2.526-.137-.036a.972.972 0 0 0-.502 1.875l.137.037-.606 2.26-1.48-.396a.695.695 0 0 0-.85.491l-.394 1.473a.695.695 0 0 0 .49.85l17.003 4.556c.37.1.751-.12.85-.49l.395-1.474a.695.695 0 0 0-.49-.85zm.665-8.397l.137.037a.415.415 0 0 1-.215.8l-.137-.036zm-1.18 4.402l.137.037a.415.415 0 0 1-.214.8l-.137-.037zm2.36-8.803l.136.036a.415.415 0 0 1-.214.8l-.137-.036zm-5.804-1.556l3.396.91-.214.801-3.397-.91zm.839 9.085a1.267 1.267 0 0 0-.929-1.373 1.267 1.267 0 0 0-1.49.725l-.672-.18a.278.278 0 1 0-.144.537l.66.177-.215.8-3.682-.986.214-.801 2.02.541a.278.278 0 1 0 .144-.537l-2.032-.545a1.267 1.267 0 0 0-.929-1.373 1.267 1.267 0 0 0-1.49.725l-.342-.092.676-2.526.82.22a1.267 1.267 0 0 0 .928 1.372 1.267 1.267 0 0 0 1.49-.724l.848.227a1.263 1.263 0 1 0 2.005 1.17 1.263 1.263 0 0 0 2.32-.011l.82.22-.678 2.525zm.198.629l-.214.8-.33-.088.214-.8zm-.77-.597l-.41 1.53a.71.71 0 0 1-1.368-.368l.41-1.529a.71.71 0 0 1 1.369.367zm-6.151-1.545l-.358 1.337v.001l-.026.095a.71.71 0 0 1-1.37-.367l.026-.095v-.001l.359-1.337v-.001l.025-.095a.71.71 0 0 1 1.37.367l-.026.095v.001zm-.097-3.208l.41-1.529a.71.71 0 0 1 1.369.367l-.41 1.529a.71.71 0 0 1-1.37-.367zm2.004.147l.214-.8.823.22-.215.8zm1.262.728l.41-1.529a.71.71 0 0 1 1.369.367l-.41 1.529a.71.71 0 0 1-1.37-.367zm3.301.783l-.025.095a.71.71 0 0 1-1.37-.367l.41-1.529a.71.71 0 0 1 1.37.367l-.385 1.433v.001zm.61-.125l.214-.8.807.215-.215.8zm-3.006-6.772a.71.71 0 0 1 1.37.367l-.41 1.53a.71.71 0 0 1-1.37-.368l.41-1.529zm-1.906-.51a.71.71 0 0 1 1.369.366l-.41 1.53a.71.71 0 0 1-1.369-.368zm-.053 2.934c.386.103.778.016 1.077-.203a1.263 1.263 0 0 0 2.32-.01l3.41.913-.677 2.526-.82-.22a1.263 1.263 0 1 0-2.005-1.17 1.263 1.263 0 0 0-2.32.011l-.847-.227a1.267 1.267 0 0 0-.929-1.373 1.267 1.267 0 0 0-1.49.725l-.82-.22.678-2.526 1.495.401a1.267 1.267 0 0 0 .928 1.373zm-2.065-3.112l1.483.398-.215.8-1.482-.397zm-1.18 4.402l.807.216-.214.8-.807-.215zm-1.179 4.402l.33.088-.214.8-.33-.088zm-.358 1.338l.342.091a1.267 1.267 0 0 0 .929 1.373 1.267 1.267 0 0 0 1.49-.724l3.707.993a1.267 1.267 0 0 0 .929 1.373 1.267 1.267 0 0 0 1.49-.725l.343.092-.606 2.26-9.23-2.472zm.54-9.494a.278.278 0 0 0 .042-.159l.316-1.179a.278.278 0 0 0 .043-.159l.181-.677a.024.024 0 0 1 .03-.017l1.286.344c.012.004.02.017.017.03l-.203.756v.001l-.358 1.337v.001l-3.037 11.333-1.333-.357zm-.581-.529a.415.415 0 0 1 .214-.8l.137.036-.214.801zm-1.18 4.402a.415.415 0 0 1 .215-.8l.137.036-.215.8zm-1.18 4.402a.415.415 0 0 1 .215-.801l.137.037-.214.8zm14.47 9.173a.138.138 0 0 1-.169.098l-17.002-4.556a.138.138 0 0 1-.098-.169l.395-1.473a.138.138 0 0 1 .169-.097l17.002 4.555a.14.14 0 0 1 .098.17zM58.11 52.988l.765-1.326 2.027 1.17-.071.123a.972.972 0 0 0 1.681.971l.071-.123 2.265 1.308-.07.123a.972.972 0 0 0 1.68.97l.072-.122.7.403a.278.278 0 1 0 .277-.481l-8.354-4.824.69-1.194 2.267 1.309h.001l1.199.692v.001l3.946 2.278h.001l4.625 2.67a.024.024 0 0 1 .008.033l-.665 1.153a.024.024 0 0 1-.033.009l-2.802-1.618a.278.278 0 1 0-.278.482l.683.394-.071.123a.972.972 0 0 0 1.681.971l.071-.123.438.253c.277.16.633.064.793-.213l.665-1.153a.581.581 0 0 0-.212-.792l-.438-.253 1.765-3.057a1.263 1.263 0 1 0 1.649-1.634 1.263 1.263 0 0 0 .59-2.244l.774-1.34.437.252c.278.16.633.065.793-.212l.666-1.153a.581.581 0 0 0-.212-.793l-.438-.252.07-.123a.972.972 0 0 0-1.68-.971l-.072.123L73.8 43.49l.071-.123a.972.972 0 0 0-1.681-.97l-.071.122-2.265-1.307.071-.123a.972.972 0 0 0-1.681-.971l-.071.123-2.027-1.17.765-1.327a.695.695 0 0 0-.254-.948l-1.32-.762a.695.695 0 0 0-.949.254l-8.8 15.243a.695.695 0 0 0 .253.949l1.32.762a.695.695 0 0 0 .95-.254zm7.938 2.815l-.071.123a.415.415 0 0 1-.718-.414l.071-.123zm-3.946-2.278l-.071.123a.415.415 0 0 1-.718-.415l.07-.122zm7.892 4.557l-.07.123a.415.415 0 0 1-.718-.415l.07-.123zM73 52.878l-1.759 3.046-.717-.415 1.758-3.045zm-8.992-1.54c.574.23 1.248.01 1.566-.541a1.267 1.267 0 0 0-.314-1.628l.348-.602a.278.278 0 1 0-.482-.279l-.342.592-.717-.415 1.906-3.3.717.414-1.045 1.81a.278.278 0 1 0 .482.278l1.052-1.821c.574.23 1.248.01 1.566-.542a1.267 1.267 0 0 0-.314-1.627l.177-.307 2.265 1.308-.424.734a1.267 1.267 0 0 0-1.566.541 1.267 1.267 0 0 0 .314 1.628l-.439.76a1.263 1.263 0 1 0-1.649 1.634 1.263 1.263 0 0 0-.59 2.243l-.424.735-2.265-1.308zm-.66.029l-.717-.415.17-.295.718.414zm.776-.59l-1.37-.79a.71.71 0 0 1 .708-1.228l1.37.791a.71.71 0 0 1-.708 1.228zm3.085-5.541l-1.199-.692v-.001l-.086-.05a.71.71 0 0 1 .71-1.227l.084.05h.001l1.199.692.086.05a.71.71 0 0 1-.709 1.227l-.085-.049h-.001zm3.124.736l1.37.791a.71.71 0 0 1-.708 1.228l-1.371-.791a.71.71 0 0 1 .709-1.228zm-.66 1.898l.717.414-.425.737-.718-.414zM68.64 48.9l1.37.792a.71.71 0 0 1-.708 1.227l-1.37-.791a.71.71 0 0 1 .708-1.228zm-1.61 2.986l-.086-.049a.71.71 0 0 1 .71-1.227l1.37.791a.71.71 0 0 1-.709 1.228l-1.284-.742h-.001zm-.037.622l.717.414-.417.723-.718-.414zm7.318-1.15a.71.71 0 0 1-.709 1.227l-1.37-.791a.71.71 0 0 1 .708-1.228l1.371.791zm.987-1.71a.71.71 0 0 1-.709 1.228l-1.37-.792a.71.71 0 0 1 .708-1.227zm-2.82-.81c-.2.345-.217.746-.083 1.092a1.263 1.263 0 0 0-.59 2.245L70.04 55.23l-2.265-1.308.424-.734a1.263 1.263 0 1 0 1.649-1.634 1.263 1.263 0 0 0 .59-2.244l.438-.76c.575.231 1.248.01 1.567-.541a1.267 1.267 0 0 0-.314-1.627l.423-.735 2.265 1.308-.773 1.34a1.267 1.267 0 0 0-1.567.542zm3.54-1.19l-.768 1.33-.718-.415.767-1.329zm-3.947-2.278l-.418.723-.718-.414.418-.723zm-3.947-2.278l-.17.295-.718-.414.17-.296zm-1.2-.693l-.177.307a1.267 1.267 0 0 0-1.566.541 1.267 1.267 0 0 0 .314 1.628l-1.919 3.323a1.267 1.267 0 0 0-1.566.542 1.267 1.267 0 0 0 .314 1.627l-.177.307-2.027-1.17 4.778-8.275zm9.031 2.979a.278.278 0 0 0 .142.082l1.058.61a.278.278 0 0 0 .142.082l.607.351a.024.024 0 0 1 .01.033l-.666 1.153a.024.024 0 0 1-.033.009l-.678-.392h-.001l-1.199-.692-.001-.001-10.16-5.866.69-1.195zm.661-.425a.415.415 0 0 1 .718.414l-.07.123-.719-.414zm-3.946-2.278a.415.415 0 0 1 .718.414l-.071.123-.718-.415zm-3.947-2.279a.415.415 0 0 1 .718.415l-.07.122-.719-.414zM56.118 51.998a.138.138 0 0 1-.05-.188l8.8-15.244a.138.138 0 0 1 .19-.05l1.32.762a.138.138 0 0 1 .05.188l-8.8 15.244a.138.138 0 0 1-.189.05z"/></g></svg>