<svg xmlns="http://www.w3.org/2000/svg" viewBox="0 0 45.519 51.171" fill="#e8594a"><path d="M26.409 25.585q2.126 1.578 3.43 4.322 1.303 2.743 1.303 5.693 0 6.448-4.733 10.907-4.664 4.458-11.524 4.458-6.31 0-9.397-2.88-3.018-2.882-4.253-5.214Q0 40.539 0 38.961q0-1.44 1.03-2.47 1.097-1.097 2.537-1.097 1.92 0 2.95 2.058 1.097 1.99 1.577 2.744.48.754 1.03 1.44 2.194 2.333 5.967 2.333 3.567 0 5.968-2.333 2.4-2.332 2.4-5.899 0-3.43-2.057-5.556-2.058-2.126-5.694-2.47-.891 0-1.509-.136l-1.097-.275q-.549-.206-1.098-1.097-.548-.892-.548-1.921 0-.96.48-1.783.48-.824 1.646-1.304l2.058-.411q2.47-.48 3.91-2.401 1.44-1.99 1.44-4.733 0-2.95-1.715-4.87t-4.321-1.92q-4.39 0-6.38 5.144l-.617 1.714q-.891 1.853-2.744 1.853-1.44 0-2.4-1.098-.96-1.097-.96-2.675 0-4.665 4.046-8.231Q9.946 0 15.297 0q5.556 0 9.26 3.704 3.773 3.635 3.773 9.191 0 2.538-.755 4.459-.686 1.92-1.578 3.155-.891 1.166-3.086 3.018.96.48 1.989 1.098 1.029.617 1.509.96zm14.788 17.08q1.784 0 3.019 1.304 1.303 1.234 1.303 3.086 0 1.647-1.235 2.881-1.235 1.235-3.018 1.235-1.715 0-3.018-1.235-1.303-1.234-1.303-3.018 0-1.783 1.234-3.018 1.235-1.235 3.018-1.235z"/></svg>