<svg xmlns="http://www.w3.org/2000/svg" viewBox="0 0 45.247 51.171" fill="#e8594a"><path d="M27.437 43.488q1.51 0 2.538.96 1.029.961 1.029 2.333 0 1.44-1.029 2.47-.96.96-2.4.96H4.457q-1.92 0-3.087-.892-1.097-.96-1.097-2.47 0-1.097 1.44-3.018l9.535-12.552 3.635-4.802q1.921-2.4 3.087-4.184 1.166-1.784 2.47-4.253 1.371-2.47 1.371-4.664 0-2.676-1.92-4.528-1.92-1.852-4.733-1.852-3.156 0-5.282 1.99-2.058 1.989-2.812 5.624l-.686 2.881q-.686 1.99-2.813 1.99-3.566 0-3.566-4.185 0-6.448 4.458-10.838Q8.985.001 15.502.001q5.899 0 9.946 3.772 4.116 3.704 4.116 9.26 0 2.744-1.372 6.105-1.304 3.293-3.636 6.448l-4.596 6.105-5.144 6.791-3.91 5.007zm13.488-.823q1.784 0 3.019 1.304 1.303 1.234 1.303 3.086 0 1.647-1.235 2.881-1.234 1.235-3.018 1.235-1.715 0-3.018-1.235-1.303-1.234-1.303-3.018 0-1.783 1.234-3.018 1.235-1.235 3.018-1.235z"/></svg>