<svg xmlns="http://www.w3.org/2000/svg" viewBox="0 0 512.001 512.001" fill="#e8594a" opacity=".12"><path d="M411.411 367.23c-13.471-12.722-27.04-17.938-29.354-18.767l-46.173-19.24a7.976 7.976 0 0 0-1.134-.377l-31.94-8.051v-27.098c.468-.233.93-.473 1.394-.715a8.037 8.037 0 0 0 3.221 1.273c20.168 3.219 38.62 8.436 53.36 15.086a8.065 8.065 0 0 0 3.319.717 8.08 8.08 0 0 0 6.992-4.058 7.94 7.94 0 0 0 .903-.969c26.056-33.611 40.405-77.188 40.405-122.705 0-55.64-21.215-107.518-58.204-142.331l-.015-.013C326.785 14.199 292.3 0 257.077 0c-85.646 0-155.325 81.792-155.325 182.326 0 46.52 14.908 90.806 41.976 124.7.056.069.119.129.176.197.053.061.107.119.161.178.208.23.426.445.653.646l.123.11a8.014 8.014 0 0 0 2.917 1.567l.071.021c.34.097.683.171 1.033.223.022.004.043.009.066.012a8.13 8.13 0 0 0 1.123.087c.082 0 .164-.018.247-.021a7.81 7.81 0 0 0 .821-.068 7.909 7.909 0 0 0 1.408-.312c.157-.051.31-.115.465-.177.126-.05.254-.091.379-.148 14.917-6.729 33.612-11.985 54.063-15.198a8.042 8.042 0 0 0 2.818-1.009c.319.165.638.332.96.493v27.091l-33.868 8.106c-.419.1-.83.234-1.228.4l-46.173 19.24c-2.312.829-15.881 6.045-29.354 18.767-13.338 12.596-29.237 35.26-29.237 71.704v64.976a8.085 8.085 0 0 0 8.084 8.086h97.226a8.084 8.084 0 0 0 0-16.168h-26.775V435.98a8.084 8.084 0 0 0-8.084-8.084 8.083 8.083 0 0 0-8.084 8.084v59.849H87.52v-56.894c0-58.095 45.969-74.594 47.898-75.258.18-.061.359-.127.535-.201l38.443-16.02 5.209 18.6.004.016 36.348 129.759h-16.001a8.084 8.084 0 0 0 0 16.168h26.632l.026.002.03-.002h60.872l.03.002.025-.002h144.996c4.466 0 8.084-3.636 8.084-8.1v-64.964c-.001-36.445-15.901-59.108-29.24-71.705zm-258.767-75.152c-22.428-30.37-34.722-69.083-34.722-109.751-.002-91.621 62.425-166.159 139.155-166.159 31.545 0 61.297 12.311 86.041 35.601 33.756 31.771 53.117 79.357 53.117 130.556 0 40.578-12.302 79.39-34.715 109.754-11.67-4.721-25.046-8.65-39.425-11.588 14.259-13.002 24.034-30.828 26.762-50.863 19.714-1.605 35.266-18.15 35.266-38.268 0-19.853-15.138-36.235-34.476-38.211a8.08 8.08 0 0 0-6.463-7.787c-55.071-11.226-79.296-44.036-79.518-44.342a8.08 8.08 0 0 0-12.378-.957c-31.428 32.257-80.245 45.268-80.729 45.394a8.08 8.08 0 0 0-6.044 7.69c-19.342 1.973-34.483 18.358-34.483 38.212 0 20.12 15.554 36.664 35.268 38.268 2.729 20.037 12.505 37.863 26.766 50.866-14.381 2.94-27.752 6.864-39.422 11.585zm197.01-78.849v-43.741c10.388 1.868 18.302 10.954 18.302 21.873 0 10.916-7.914 20.002-18.302 21.868zm-185.151-43.742v43.743c-10.388-1.866-18.303-10.952-18.303-21.869 0-10.921 7.915-20.007 18.303-21.874zm16.168 48.713v-58.867c13.846-4.373 48.471-17.076 75.834-41.857 10.486 11.086 35.033 32.217 76.98 42.294v58.43c0 37.572-30.566 68.14-68.137 68.14h-16.537c-37.572-.001-68.14-30.568-68.14-68.14zm9.118 124.267l31.388-7.51a8.084 8.084 0 0 0 6.202-7.862v-27.357a84.143 84.143 0 0 0 21.433 2.769h16.537c7.353 0 14.488-.952 21.293-2.729v27.317a8.081 8.081 0 0 0 6.108 7.838l31.504 7.94-4.423 15.79c-28.116 16.455-57.824 21.408-88.348 14.716-18.511-4.058-31.974-11.441-37.117-14.574l-4.577-16.338zm91.621 153.361h-48.663l-32.42-115.739a144.947 144.947 0 0 0 26.975 8.925 136.835 136.835 0 0 0 29.958 3.336c16.785 0 36.132-3.138 56.613-12.419L281.41 495.828zm143.072.001h-46.201V435.98c0-4.466-3.618-8.084-8.084-8.084s-8.084 3.618-8.084 8.084v59.849h-63.914l41.336-147.569 36.511 15.214c.156.066.345.136.507.192 1.956.674 47.928 17.173 47.928 75.268v56.895z"/><path d="M255.59 229.768h13.771c4.466 0 8.084-3.619 8.084-8.084s-3.618-8.084-8.084-8.084h-5.687v-18.186a8.082 8.082 0 0 0-8.084-8.084 8.083 8.083 0 0 0-8.084 8.084v26.27a8.084 8.084 0 0 0 8.084 8.084z"/></svg>